# Blender v3.0.1 OBJ File: ''
# www.blender.org
mtllib 1_5_in_Triangle_Easy.mtl
o 1.5inTriangleEasy.001
v 0.037433 -0.000000 0.000041
v -0.018752 -0.000000 0.032398
v 0.037433 -0.074867 0.000041
v -0.018752 -0.074867 0.032398
v -0.018681 0.000000 -0.032439
v -0.018681 -0.074867 -0.032439
vn 0.4991 -0.0000 0.8666
vn 0.5010 0.0000 -0.8655
vn -1.0000 0.0000 -0.0011
vn 0.0000 -1.0000 0.0000
vn 0.0000 1.0000 0.0000
usemtl None.009
s 1
f 1//1 2//1 3//1
f 3//1 2//1 4//1
f 5//2 1//2 6//2
f 6//2 1//2 3//2
f 2//3 5//3 4//3
f 4//3 5//3 6//3
f 4//4 6//4 3//4
f 5//5 2//5 1//5
