# Blender v3.0.1 OBJ File: ''
# www.blender.org
mtllib 1_5_in_Triangle_Hard_4.mtl
o 1.5inTriangleHard.003
v -0.036544 -0.008205 -0.000000
v 0.025378 -0.027547 -0.000000
v -0.036544 -0.008205 0.076200
v 0.025378 -0.027547 0.076200
v 0.011167 0.035751 0.000000
v 0.011167 0.035751 0.076200
vn -0.2981 -0.9545 -0.0000
vn -0.6776 0.7355 0.0000
vn 0.9757 0.2191 0.0000
vn 0.0000 0.0000 1.0000
vn 0.0000 0.0000 -1.0000
usemtl None.008
s 1
f 1//1 2//1 3//1
f 3//1 2//1 4//1
f 5//2 1//2 6//2
f 6//2 1//2 3//2
f 2//3 5//3 4//3
f 4//3 5//3 6//3
f 4//4 6//4 3//4
f 5//5 2//5 1//5
