# Blender v3.0.1 OBJ File: ''
# www.blender.org
mtllib 1_5_in_Triangle_Hard.mtl
o 1.5inTriangleHard.001
v -0.037174 0.008346 0.000000
v 0.025815 0.028021 0.000000
v -0.037174 0.008346 -0.076200
v 0.025815 0.028021 -0.076200
v 0.011360 -0.036367 -0.000000
v 0.011360 -0.036367 -0.076200
vn -0.2981 0.9545 0.0000
vn -0.6776 -0.7355 -0.0000
vn 0.9757 -0.2190 -0.0000
vn 0.0000 0.0000 -1.0000
vn 0.0000 -0.0000 1.0000
usemtl None.007
s 1
f 1//1 2//1 3//1
f 3//1 2//1 4//1
f 5//2 1//2 6//2
f 6//2 1//2 3//2
f 2//3 5//3 4//3
f 4//3 5//3 6//3
f 4//4 6//4 3//4
f 5//5 2//5 1//5
