# Blender v3.0.1 OBJ File: ''
# www.blender.org
mtllib 1_5inTriangleBlockAdjustedZ.mtl
o 1.5inTriangleBlockAdjustedZ
v -0.033436 -0.019304 0.000000
v 0.033435 -0.019304 0.000000
v -0.033436 -0.019304 -0.019050
v 0.033435 -0.019304 -0.019050
v 0.000000 0.038608 0.000000
v 0.000000 0.038608 -0.019050
v -0.041840 0.050800 0.000000
v 0.041840 0.050800 0.000000
v -0.041840 0.050800 -0.019050
v 0.041840 0.050800 -0.019050
v -0.041840 -0.050800 0.000000
v -0.041840 -0.050800 -0.019050
v 0.041840 -0.050800 0.000000
v 0.041840 -0.050800 -0.019050
vn 0.0000 1.0000 0.0000
vn 0.8660 -0.5000 0.0000
vn -0.8660 -0.5000 0.0000
vn -1.0000 0.0000 0.0000
vn 0.0000 -1.0000 0.0000
vn 1.0000 0.0000 0.0000
vn 0.0000 0.0000 -1.0000
vn 0.0000 0.0000 1.0000
usemtl None
s off
f 1//1 2//1 3//1
f 3//1 2//1 4//1
f 5//2 1//2 6//2
f 6//2 1//2 3//2
f 2//3 5//3 4//3
f 4//3 5//3 6//3
f 7//1 8//1 9//1
f 9//1 8//1 10//1
f 11//4 7//4 12//4
f 12//4 7//4 9//4
f 13//5 11//5 14//5
f 14//5 11//5 12//5
f 8//6 13//6 10//6
f 10//6 13//6 14//6
f 6//7 10//7 4//7
f 4//7 10//7 14//7
f 4//7 14//7 12//7
f 10//7 6//7 9//7
f 9//7 6//7 3//7
f 9//7 3//7 12//7
f 12//7 3//7 4//7
f 2//8 8//8 5//8
f 5//8 8//8 7//8
f 5//8 7//8 1//8
f 1//8 7//8 11//8
f 1//8 11//8 2//8
f 2//8 11//8 13//8
f 2//8 13//8 8//8
