# Blender v3.0.1 OBJ File: ''
# www.blender.org
mtllib 1_inCylinderAdjustedZ.mtl
o 1inCylinderAdjustedZ
v -0.012870 0.001477 -0.019050
v -0.012870 0.001477 -0.009525
v -0.012954 0.000000 -0.019050
v -0.012954 -0.000000 -0.009525
v -0.012870 -0.001477 -0.019050
v -0.012870 -0.001477 -0.009525
v -0.012617 -0.002934 -0.019050
v -0.012617 -0.002934 -0.009525
v -0.012201 -0.004353 -0.019050
v -0.012201 -0.004353 -0.009525
v -0.011625 -0.005716 -0.019050
v -0.011625 -0.005716 -0.009525
v -0.010898 -0.007003 -0.019050
v -0.010898 -0.007003 -0.009525
v -0.010028 -0.008200 -0.019050
v -0.010028 -0.008200 -0.009525
v -0.009028 -0.009290 -0.019050
v -0.009028 -0.009290 -0.009525
v -0.007910 -0.010258 -0.019050
v -0.007910 -0.010258 -0.009525
v -0.006689 -0.011093 -0.019050
v -0.006689 -0.011093 -0.009525
v -0.005381 -0.011783 -0.019050
v -0.005381 -0.011783 -0.009525
v -0.004003 -0.012320 -0.019050
v -0.004003 -0.012320 -0.009525
v -0.002573 -0.012696 -0.019050
v -0.002573 -0.012696 -0.009525
v -0.001109 -0.012906 -0.019050
v -0.001109 -0.012906 -0.009525
v 0.000370 -0.012949 -0.019050
v 0.000370 -0.012949 -0.009525
v 0.001844 -0.012822 -0.019050
v 0.001844 -0.012822 -0.009525
v 0.003293 -0.012528 -0.019050
v 0.003293 -0.012528 -0.009525
v 0.004700 -0.012071 -0.019050
v 0.004700 -0.012071 -0.009525
v 0.006045 -0.011457 -0.019050
v 0.006045 -0.011457 -0.009525
v 0.007312 -0.010693 -0.019050
v 0.007312 -0.010693 -0.009525
v 0.008483 -0.009790 -0.019050
v 0.008483 -0.009790 -0.009525
v 0.009544 -0.008759 -0.019050
v 0.009544 -0.008759 -0.009525
v 0.010480 -0.007614 -0.019050
v 0.010480 -0.007614 -0.009525
v 0.011280 -0.006370 -0.019050
v 0.011280 -0.006370 -0.009525
v 0.011932 -0.005043 -0.019050
v 0.011932 -0.005043 -0.009525
v 0.012429 -0.003650 -0.019050
v 0.012429 -0.003650 -0.009525
v 0.012764 -0.002209 -0.019050
v 0.012764 -0.002209 -0.009525
v 0.012933 -0.000740 -0.019050
v 0.012933 -0.000740 -0.009525
v 0.012933 0.000740 -0.019050
v 0.012933 0.000740 -0.009525
v 0.012764 0.002209 -0.019050
v 0.012764 0.002209 -0.009525
v 0.012429 0.003650 -0.019050
v 0.012429 0.003650 -0.009525
v 0.011932 0.005043 -0.019050
v 0.011932 0.005043 -0.009525
v 0.011280 0.006370 -0.019050
v 0.011280 0.006370 -0.009525
v 0.010480 0.007614 -0.019050
v 0.010480 0.007614 -0.009525
v 0.009544 0.008759 -0.019050
v 0.009544 0.008759 -0.009525
v 0.008483 0.009790 -0.019050
v 0.008483 0.009790 -0.009525
v 0.007312 0.010693 -0.019050
v 0.007312 0.010693 -0.009525
v 0.006045 0.011457 -0.019050
v 0.006045 0.011457 -0.009525
v 0.004700 0.012071 -0.019050
v 0.004700 0.012071 -0.009525
v 0.003293 0.012528 -0.019050
v 0.003293 0.012528 -0.009525
v 0.001844 0.012822 -0.019050
v 0.001844 0.012822 -0.009525
v 0.000370 0.012949 -0.019050
v 0.000370 0.012949 -0.009525
v -0.001109 0.012906 -0.019050
v -0.001109 0.012906 -0.009525
v -0.002573 0.012696 -0.019050
v -0.002573 0.012696 -0.009525
v -0.004003 0.012320 -0.019050
v -0.004003 0.012320 -0.009525
v -0.005381 0.011783 -0.019050
v -0.005381 0.011783 -0.009525
v -0.006689 0.011093 -0.019050
v -0.006689 0.011093 -0.009525
v -0.007910 0.010258 -0.019050
v -0.007910 0.010258 -0.009525
v -0.009028 0.009290 -0.019050
v -0.009028 0.009290 -0.009525
v -0.010028 0.008200 -0.019050
v -0.010028 0.008200 -0.009525
v -0.010898 0.007003 -0.019050
v -0.010898 0.007003 -0.009525
v -0.011625 0.005716 -0.019050
v -0.011625 0.005716 -0.009525
v -0.012201 0.004353 -0.019050
v -0.012201 0.004353 -0.009525
v -0.012617 0.002934 -0.019050
v -0.012617 0.002934 -0.009525
v -0.012870 -0.001477 0.000000
v -0.012954 0.000000 0.000000
v -0.012870 0.001477 0.000000
v -0.012617 0.002934 0.000000
v -0.012201 0.004353 0.000000
v -0.011625 0.005716 0.000000
v -0.010898 0.007003 0.000000
v -0.010028 0.008200 0.000000
v -0.009028 0.009290 0.000000
v -0.007910 0.010258 0.000000
v -0.006689 0.011093 0.000000
v -0.005381 0.011783 0.000000
v -0.004003 0.012320 0.000000
v -0.002573 0.012696 0.000000
v -0.001109 0.012906 0.000000
v 0.000370 0.012949 0.000000
v 0.001844 0.012822 0.000000
v 0.003293 0.012528 0.000000
v 0.004700 0.012071 0.000000
v 0.006045 0.011457 0.000000
v 0.007312 0.010693 0.000000
v 0.008483 0.009790 0.000000
v 0.009544 0.008759 0.000000
v 0.010480 0.007614 0.000000
v 0.011280 0.006370 0.000000
v 0.011932 0.005043 0.000000
v 0.012429 0.003650 0.000000
v 0.012764 0.002209 0.000000
v 0.012933 0.000740 0.000000
v 0.012933 -0.000740 0.000000
v 0.012764 -0.002209 0.000000
v 0.012429 -0.003650 0.000000
v 0.011932 -0.005043 0.000000
v 0.011280 -0.006370 0.000000
v 0.010480 -0.007614 0.000000
v 0.009544 -0.008759 0.000000
v 0.008483 -0.009790 0.000000
v 0.007312 -0.010693 0.000000
v 0.006045 -0.011457 0.000000
v 0.004700 -0.012071 0.000000
v 0.003293 -0.012528 0.000000
v 0.001844 -0.012822 0.000000
v 0.000370 -0.012949 0.000000
v -0.001109 -0.012906 0.000000
v -0.002573 -0.012696 0.000000
v -0.004003 -0.012320 0.000000
v -0.005381 -0.011783 0.000000
v -0.006689 -0.011093 0.000000
v -0.007910 -0.010258 0.000000
v -0.009028 -0.009290 0.000000
v -0.010028 -0.008200 0.000000
v -0.010898 -0.007003 0.000000
v -0.011625 -0.005716 0.000000
v -0.012201 -0.004353 0.000000
v -0.012617 -0.002934 0.000000
v -0.041840 0.050800 0.000000
v 0.041840 0.050800 0.000000
v -0.041840 0.050800 -0.019050
v 0.041840 0.050800 -0.019050
v -0.041840 -0.050800 0.000000
v -0.041840 -0.050800 -0.019050
v 0.041840 -0.050800 0.000000
v 0.041840 -0.050800 -0.019050
vn 0.9984 -0.0571 0.0000
vn 0.9984 0.0571 0.0000
vn 0.9854 0.1705 0.0000
vn 0.9595 0.2817 0.0000
vn 0.9211 0.3893 0.0000
vn 0.8707 0.4917 0.0000
vn 0.8090 0.5878 0.0000
vn 0.7367 0.6762 0.0000
vn 0.6549 0.7557 0.0000
vn 0.5644 0.8255 0.0000
vn 0.4667 0.8844 0.0000
vn 0.3628 0.9319 0.0000
vn 0.2542 0.9671 0.0000
vn 0.1423 0.9898 0.0000
vn 0.0286 0.9996 0.0000
vn -0.0856 0.9963 0.0000
vn -0.1986 0.9801 0.0000
vn -0.3090 0.9511 0.0000
vn -0.4154 0.9096 0.0000
vn -0.5164 0.8563 0.0000
vn -0.6106 0.7919 0.0000
vn -0.6969 0.7171 0.0000
vn -0.7741 0.6330 0.0000
vn -0.8413 0.5406 0.0000
vn -0.8974 0.4412 0.0000
vn -0.9418 0.3360 0.0000
vn -0.9740 0.2265 0.0000
vn -0.9935 0.1140 0.0000
vn -1.0000 0.0000 0.0000
vn -0.9935 -0.1140 0.0000
vn -0.9740 -0.2265 0.0000
vn -0.9418 -0.3360 0.0000
vn -0.8974 -0.4412 0.0000
vn -0.8413 -0.5406 0.0000
vn -0.7741 -0.6330 0.0000
vn -0.6969 -0.7171 0.0000
vn -0.6106 -0.7919 0.0000
vn -0.5164 -0.8563 0.0000
vn -0.4154 -0.9096 0.0000
vn -0.3090 -0.9511 0.0000
vn -0.1986 -0.9801 0.0000
vn -0.0856 -0.9963 0.0000
vn 0.0286 -0.9996 0.0000
vn 0.1423 -0.9898 0.0000
vn 0.2542 -0.9671 0.0000
vn 0.3628 -0.9319 0.0000
vn 0.4667 -0.8844 0.0000
vn 0.5644 -0.8255 0.0000
vn 0.6549 -0.7557 0.0000
vn 0.7367 -0.6762 0.0000
vn 0.8090 -0.5878 0.0000
vn 0.8707 -0.4917 0.0000
vn 0.9211 -0.3893 0.0000
vn 0.9595 -0.2817 0.0000
vn 0.9854 -0.1705 0.0000
vn 0.0000 1.0000 0.0000
vn 0.0000 -1.0000 0.0000
vn 1.0000 0.0000 0.0000
vn 0.0000 0.0000 -1.0000
vn 0.0000 0.0000 1.0000
usemtl None
s off
f 1//1 2//1 3//1
f 3//1 2//1 4//1
f 3//2 4//2 5//2
f 5//2 4//2 6//2
f 5//3 6//3 7//3
f 7//3 6//3 8//3
f 7//4 8//4 9//4
f 9//4 8//4 10//4
f 9//5 10//5 11//5
f 11//5 10//5 12//5
f 11//6 12//6 13//6
f 13//6 12//6 14//6
f 13//7 14//7 15//7
f 15//7 14//7 16//7
f 15//8 16//8 17//8
f 17//8 16//8 18//8
f 17//9 18//9 19//9
f 19//9 18//9 20//9
f 19//10 20//10 21//10
f 21//10 20//10 22//10
f 21//11 22//11 23//11
f 23//11 22//11 24//11
f 23//12 24//12 25//12
f 25//12 24//12 26//12
f 25//13 26//13 27//13
f 27//13 26//13 28//13
f 27//14 28//14 29//14
f 29//14 28//14 30//14
f 29//15 30//15 31//15
f 31//15 30//15 32//15
f 31//16 32//16 33//16
f 33//16 32//16 34//16
f 33//17 34//17 35//17
f 35//17 34//17 36//17
f 35//18 36//18 37//18
f 37//18 36//18 38//18
f 37//19 38//19 39//19
f 39//19 38//19 40//19
f 39//20 40//20 41//20
f 41//20 40//20 42//20
f 41//21 42//21 43//21
f 43//21 42//21 44//21
f 43//22 44//22 45//22
f 45//22 44//22 46//22
f 45//23 46//23 47//23
f 47//23 46//23 48//23
f 47//24 48//24 49//24
f 49//24 48//24 50//24
f 49//25 50//25 51//25
f 51//25 50//25 52//25
f 51//26 52//26 53//26
f 53//26 52//26 54//26
f 53//27 54//27 55//27
f 55//27 54//27 56//27
f 55//28 56//28 57//28
f 57//28 56//28 58//28
f 57//29 58//29 59//29
f 59//29 58//29 60//29
f 59//30 60//30 61//30
f 61//30 60//30 62//30
f 61//31 62//31 63//31
f 63//31 62//31 64//31
f 63//32 64//32 65//32
f 65//32 64//32 66//32
f 65//33 66//33 67//33
f 67//33 66//33 68//33
f 67//34 68//34 69//34
f 69//34 68//34 70//34
f 69//35 70//35 71//35
f 71//35 70//35 72//35
f 71//36 72//36 73//36
f 73//36 72//36 74//36
f 73//37 74//37 75//37
f 75//37 74//37 76//37
f 75//38 76//38 77//38
f 77//38 76//38 78//38
f 77//39 78//39 79//39
f 79//39 78//39 80//39
f 79//40 80//40 81//40
f 81//40 80//40 82//40
f 81//41 82//41 83//41
f 83//41 82//41 84//41
f 83//42 84//42 85//42
f 85//42 84//42 86//42
f 85//43 86//43 87//43
f 87//43 86//43 88//43
f 87//44 88//44 89//44
f 89//44 88//44 90//44
f 89//45 90//45 91//45
f 91//45 90//45 92//45
f 91//46 92//46 93//46
f 93//46 92//46 94//46
f 93//47 94//47 95//47
f 95//47 94//47 96//47
f 95//48 96//48 97//48
f 97//48 96//48 98//48
f 97//49 98//49 99//49
f 99//49 98//49 100//49
f 99//50 100//50 101//50
f 101//50 100//50 102//50
f 101//51 102//51 103//51
f 103//51 102//51 104//51
f 103//52 104//52 105//52
f 105//52 104//52 106//52
f 105//53 106//53 107//53
f 107//53 106//53 108//53
f 107//54 108//54 109//54
f 109//54 108//54 110//54
f 109//55 110//55 1//55
f 1//55 110//55 2//55
f 111//2 6//2 112//2
f 112//2 6//2 4//2
f 112//1 4//1 113//1
f 113//1 4//1 2//1
f 113//55 2//55 114//55
f 114//55 2//55 110//55
f 114//54 110//54 115//54
f 115//54 110//54 108//54
f 115//53 108//53 116//53
f 116//53 108//53 106//53
f 116//52 106//52 117//52
f 117//52 106//52 104//52
f 117//51 104//51 118//51
f 118//51 104//51 102//51
f 118//50 102//50 119//50
f 119//50 102//50 100//50
f 119//49 100//49 120//49
f 120//49 100//49 98//49
f 120//48 98//48 121//48
f 121//48 98//48 96//48
f 121//47 96//47 122//47
f 122//47 96//47 94//47
f 122//46 94//46 123//46
f 123//46 94//46 92//46
f 123//45 92//45 124//45
f 124//45 92//45 90//45
f 124//44 90//44 125//44
f 125//44 90//44 88//44
f 125//43 88//43 126//43
f 126//43 88//43 86//43
f 126//42 86//42 127//42
f 127//42 86//42 84//42
f 127//41 84//41 128//41
f 128//41 84//41 82//41
f 128//40 82//40 129//40
f 129//40 82//40 80//40
f 129//39 80//39 130//39
f 130//39 80//39 78//39
f 130//38 78//38 131//38
f 131//38 78//38 76//38
f 131//37 76//37 132//37
f 132//37 76//37 74//37
f 132//36 74//36 133//36
f 133//36 74//36 72//36
f 133//35 72//35 134//35
f 134//35 72//35 70//35
f 134//34 70//34 135//34
f 135//34 70//34 68//34
f 135//33 68//33 136//33
f 136//33 68//33 66//33
f 136//32 66//32 137//32
f 137//32 66//32 64//32
f 137//31 64//31 138//31
f 138//31 64//31 62//31
f 138//30 62//30 139//30
f 139//30 62//30 60//30
f 139//29 60//29 140//29
f 140//29 60//29 58//29
f 140//28 58//28 141//28
f 141//28 58//28 56//28
f 141//27 56//27 142//27
f 142//27 56//27 54//27
f 142//26 54//26 143//26
f 143//26 54//26 52//26
f 143//25 52//25 144//25
f 144//25 52//25 50//25
f 144//24 50//24 145//24
f 145//24 50//24 48//24
f 145//23 48//23 146//23
f 146//23 48//23 46//23
f 146//22 46//22 147//22
f 147//22 46//22 44//22
f 147//21 44//21 148//21
f 148//21 44//21 42//21
f 148//20 42//20 149//20
f 149//20 42//20 40//20
f 149//19 40//19 150//19
f 150//19 40//19 38//19
f 150//18 38//18 151//18
f 151//18 38//18 36//18
f 151//17 36//17 152//17
f 152//17 36//17 34//17
f 152//16 34//16 153//16
f 153//16 34//16 32//16
f 153//15 32//15 154//15
f 154//15 32//15 30//15
f 154//14 30//14 155//14
f 155//14 30//14 28//14
f 155//13 28//13 156//13
f 156//13 28//13 26//13
f 156//12 26//12 157//12
f 157//12 26//12 24//12
f 157//11 24//11 158//11
f 158//11 24//11 22//11
f 158//10 22//10 159//10
f 159//10 22//10 20//10
f 159//9 20//9 160//9
f 160//9 20//9 18//9
f 160//8 18//8 161//8
f 161//8 18//8 16//8
f 161//7 16//7 162//7
f 162//7 16//7 14//7
f 162//6 14//6 163//6
f 163//6 14//6 12//6
f 163//5 12//5 164//5
f 164//5 12//5 10//5
f 164//4 10//4 165//4
f 165//4 10//4 8//4
f 165//3 8//3 111//3
f 111//3 8//3 6//3
f 166//56 167//56 168//56
f 168//56 167//56 169//56
f 170//29 166//29 171//29
f 171//29 166//29 168//29
f 172//57 170//57 173//57
f 173//57 170//57 171//57
f 167//58 172//58 169//58
f 169//58 172//58 173//58
f 5//59 171//59 3//59
f 3//59 171//59 168//59
f 3//59 168//59 1//59
f 1//59 168//59 109//59
f 109//59 168//59 107//59
f 107//59 168//59 105//59
f 105//59 168//59 103//59
f 103//59 168//59 101//59
f 101//59 168//59 99//59
f 99//59 168//59 97//59
f 97//59 168//59 95//59
f 95//59 168//59 93//59
f 93//59 168//59 91//59
f 91//59 168//59 89//59
f 89//59 168//59 87//59
f 87//59 168//59 85//59
f 85//59 168//59 169//59
f 85//59 169//59 83//59
f 83//59 169//59 81//59
f 81//59 169//59 79//59
f 79//59 169//59 77//59
f 77//59 169//59 75//59
f 75//59 169//59 73//59
f 73//59 169//59 71//59
f 71//59 169//59 69//59
f 69//59 169//59 67//59
f 67//59 169//59 65//59
f 65//59 169//59 63//59
f 63//59 169//59 61//59
f 61//59 169//59 59//59
f 59//59 169//59 57//59
f 57//59 169//59 173//59
f 57//59 173//59 55//59
f 55//59 173//59 53//59
f 53//59 173//59 51//59
f 51//59 173//59 49//59
f 49//59 173//59 47//59
f 47//59 173//59 45//59
f 45//59 173//59 43//59
f 43//59 173//59 41//59
f 41//59 173//59 39//59
f 39//59 173//59 37//59
f 37//59 173//59 35//59
f 35//59 173//59 33//59
f 33//59 173//59 31//59
f 31//59 173//59 171//59
f 31//59 171//59 29//59
f 29//59 171//59 27//59
f 27//59 171//59 25//59
f 25//59 171//59 23//59
f 23//59 171//59 21//59
f 21//59 171//59 19//59
f 19//59 171//59 17//59
f 17//59 171//59 15//59
f 15//59 171//59 13//59
f 13//59 171//59 11//59
f 11//59 171//59 9//59
f 9//59 171//59 7//59
f 7//59 171//59 5//59
f 113//60 166//60 112//60
f 112//60 166//60 170//60
f 112//60 170//60 111//60
f 111//60 170//60 165//60
f 165//60 170//60 164//60
f 164//60 170//60 163//60
f 163//60 170//60 162//60
f 162//60 170//60 161//60
f 161//60 170//60 160//60
f 160//60 170//60 159//60
f 159//60 170//60 158//60
f 158//60 170//60 157//60
f 157//60 170//60 156//60
f 156//60 170//60 155//60
f 155//60 170//60 154//60
f 154//60 170//60 153//60
f 153//60 170//60 172//60
f 153//60 172//60 152//60
f 152//60 172//60 151//60
f 151//60 172//60 150//60
f 150//60 172//60 149//60
f 149//60 172//60 148//60
f 148//60 172//60 147//60
f 147//60 172//60 146//60
f 146//60 172//60 145//60
f 145//60 172//60 144//60
f 144//60 172//60 143//60
f 143//60 172//60 142//60
f 142//60 172//60 141//60
f 141//60 172//60 140//60
f 140//60 172//60 167//60
f 140//60 167//60 139//60
f 139//60 167//60 138//60
f 138//60 167//60 137//60
f 137//60 167//60 136//60
f 136//60 167//60 135//60
f 135//60 167//60 134//60
f 134//60 167//60 133//60
f 133//60 167//60 132//60
f 132//60 167//60 131//60
f 131//60 167//60 130//60
f 130//60 167//60 129//60
f 129//60 167//60 128//60
f 128//60 167//60 127//60
f 127//60 167//60 126//60
f 126//60 167//60 166//60
f 126//60 166//60 125//60
f 125//60 166//60 124//60
f 124//60 166//60 123//60
f 123//60 166//60 122//60
f 122//60 166//60 121//60
f 121//60 166//60 120//60
f 120//60 166//60 119//60
f 119//60 166//60 118//60
f 118//60 166//60 117//60
f 117//60 166//60 116//60
f 116//60 166//60 115//60
f 115//60 166//60 114//60
f 114//60 166//60 113//60
