# Blender v3.0.1 OBJ File: ''
# www.blender.org
mtllib 2_inCylinderAdjustedZ.mtl
o 2inCylinderAdjustedZ
v 0.025569 0.002091 0.019050
v 0.025569 0.002091 -0.000000
v 0.025654 0.000000 0.019050
v 0.025654 0.000000 -0.000000
v 0.025569 -0.002091 0.019050
v 0.025569 -0.002091 -0.000000
v 0.025313 -0.004168 0.019050
v 0.025313 -0.004168 -0.000000
v 0.024889 -0.006218 0.019050
v 0.024889 -0.006218 -0.000000
v 0.024300 -0.008226 0.019050
v 0.024300 -0.008226 -0.000000
v 0.023548 -0.010179 0.019050
v 0.023548 -0.010179 -0.000000
v 0.022640 -0.012064 0.019050
v 0.022640 -0.012064 -0.000000
v 0.021582 -0.013870 0.019050
v 0.021582 -0.013870 -0.000000
v 0.020379 -0.015583 0.019050
v 0.020379 -0.015583 -0.000000
v 0.019041 -0.017192 0.019050
v 0.019041 -0.017192 -0.000000
v 0.017577 -0.018687 0.019050
v 0.017577 -0.018687 -0.000000
v 0.015995 -0.020057 0.019050
v 0.015995 -0.020057 -0.000000
v 0.014307 -0.021294 0.019050
v 0.014307 -0.021294 -0.000000
v 0.012524 -0.022389 0.019050
v 0.012524 -0.022389 -0.000000
v 0.010657 -0.023336 0.019050
v 0.010657 -0.023336 0.000000
v 0.008720 -0.024127 0.019050
v 0.008720 -0.024127 0.000000
v 0.006724 -0.024757 0.019050
v 0.006724 -0.024757 0.000000
v 0.004684 -0.025223 0.019050
v 0.004684 -0.025223 0.000000
v 0.002612 -0.025521 0.019050
v 0.002612 -0.025521 0.000000
v 0.000523 -0.025649 0.019050
v 0.000523 -0.025649 0.000000
v -0.001569 -0.025606 0.019050
v -0.001569 -0.025606 0.000000
v -0.003651 -0.025393 0.019050
v -0.003651 -0.025393 0.000000
v -0.005709 -0.025011 0.019050
v -0.005709 -0.025011 0.000000
v -0.007728 -0.024462 0.019050
v -0.007728 -0.024462 0.000000
v -0.009696 -0.023751 0.019050
v -0.009696 -0.023751 0.000000
v -0.011600 -0.022882 0.019050
v -0.011600 -0.022882 0.000000
v -0.013426 -0.021860 0.019050
v -0.013426 -0.021860 0.000000
v -0.015164 -0.020693 0.019050
v -0.015164 -0.020693 0.000000
v -0.016800 -0.019388 0.019050
v -0.016800 -0.019388 0.000000
v -0.018324 -0.017954 0.019050
v -0.018324 -0.017954 0.000000
v -0.019727 -0.016401 0.019050
v -0.019727 -0.016401 0.000000
v -0.020998 -0.014738 0.019050
v -0.020998 -0.014738 0.000000
v -0.022129 -0.012978 0.019050
v -0.022129 -0.012978 0.000000
v -0.023113 -0.011131 0.019050
v -0.023113 -0.011131 0.000000
v -0.023944 -0.009210 0.019050
v -0.023944 -0.009210 0.000000
v -0.024615 -0.007228 0.019050
v -0.024615 -0.007228 0.000000
v -0.025122 -0.005197 0.019050
v -0.025122 -0.005197 0.000000
v -0.025462 -0.003132 0.019050
v -0.025462 -0.003132 0.000000
v -0.025633 -0.001046 0.019050
v -0.025633 -0.001046 0.000000
v -0.025633 0.001046 0.019050
v -0.025633 0.001046 0.000000
v -0.025462 0.003132 0.019050
v -0.025462 0.003132 0.000000
v -0.025122 0.005197 0.019050
v -0.025122 0.005197 0.000000
v -0.024615 0.007228 0.019050
v -0.024615 0.007228 0.000000
v -0.023944 0.009210 0.019050
v -0.023944 0.009210 0.000000
v -0.023113 0.011131 0.019050
v -0.023113 0.011131 0.000000
v -0.022129 0.012978 0.019050
v -0.022129 0.012978 0.000000
v -0.020998 0.014738 0.019050
v -0.020998 0.014738 0.000000
v -0.019727 0.016401 0.019050
v -0.019727 0.016401 0.000000
v -0.018324 0.017954 0.019050
v -0.018324 0.017954 0.000000
v -0.016800 0.019388 0.019050
v -0.016800 0.019388 0.000000
v -0.015164 0.020693 0.019050
v -0.015164 0.020693 0.000000
v -0.013426 0.021860 0.019050
v -0.013426 0.021860 0.000000
v -0.011600 0.022882 0.019050
v -0.011600 0.022882 0.000000
v -0.009696 0.023751 0.019050
v -0.009696 0.023751 -0.000000
v -0.007728 0.024462 0.019050
v -0.007728 0.024462 -0.000000
v -0.005709 0.025011 0.019050
v -0.005709 0.025011 -0.000000
v -0.003651 0.025393 0.019050
v -0.003651 0.025393 -0.000000
v -0.001569 0.025606 0.019050
v -0.001569 0.025606 -0.000000
v 0.000523 0.025649 0.019050
v 0.000523 0.025649 -0.000000
v 0.002612 0.025521 0.019050
v 0.002612 0.025521 -0.000000
v 0.004684 0.025223 0.019050
v 0.004684 0.025223 -0.000000
v 0.006724 0.024757 0.019050
v 0.006724 0.024757 -0.000000
v 0.008720 0.024127 0.019050
v 0.008720 0.024127 -0.000000
v 0.010657 0.023336 0.019050
v 0.010657 0.023336 -0.000000
v 0.012524 0.022389 0.019050
v 0.012524 0.022389 -0.000000
v 0.014307 0.021294 0.019050
v 0.014307 0.021294 -0.000000
v 0.015995 0.020057 0.019050
v 0.015995 0.020057 -0.000000
v 0.017577 0.018687 0.019050
v 0.017577 0.018687 -0.000000
v 0.019041 0.017192 0.019050
v 0.019041 0.017192 -0.000000
v 0.020379 0.015583 0.019050
v 0.020379 0.015583 -0.000000
v 0.021582 0.013870 0.019050
v 0.021582 0.013870 -0.000000
v 0.022640 0.012064 0.019050
v 0.022640 0.012064 -0.000000
v 0.023548 0.010179 0.019050
v 0.023548 0.010179 -0.000000
v 0.024300 0.008226 0.019050
v 0.024300 0.008226 -0.000000
v 0.024889 0.006218 0.019050
v 0.024889 0.006218 -0.000000
v 0.025313 0.004168 0.019050
v 0.025313 0.004168 -0.000000
v 0.041840 0.050800 -0.000000
v -0.041840 0.050800 0.000000
v 0.041840 0.050800 0.019050
v -0.041840 0.050800 0.019050
v 0.041840 -0.050800 -0.000000
v 0.041840 -0.050800 0.019050
v -0.041840 -0.050800 0.000000
v -0.041840 -0.050800 0.019050
vn -0.9992 -0.0410 0.0000
vn -0.9992 -0.0406 0.0000
vn -0.9992 -0.0409 0.0000
vn -0.9992 0.0409 0.0000
vn -0.9992 0.0406 0.0000
vn -0.9992 0.0410 0.0000
vn -0.9925 0.1223 0.0000
vn -0.9925 0.1220 -0.0000
vn -0.9793 0.2025 0.0000
vn -0.9595 0.2818 0.0000
vn -0.9596 0.2815 0.0000
vn -0.9333 0.3590 0.0000
vn -0.9009 0.4340 0.0000
vn -0.8628 0.5055 0.0000
vn -0.8626 0.5059 0.0000
vn -0.8184 0.5747 0.0000
vn -0.7689 0.6394 0.0000
vn -0.7142 0.6999 -0.0000
vn -0.7141 0.7000 0.0000
vn -0.7145 0.6997 0.0000
vn -0.6546 0.7559 0.0000
vn -0.5911 0.8066 0.0000
vn -0.5233 0.8521 0.0000
vn -0.4524 0.8918 0.0000
vn -0.3781 0.9258 0.0000
vn -0.3010 0.9536 0.0000
vn -0.2227 0.9749 0.0000
vn -0.1424 0.9898 0.0000
vn -0.0612 0.9981 0.0000
vn 0.0202 0.9998 0.0000
vn 0.0205 0.9998 -0.0000
vn 0.1018 0.9948 -0.0000
vn 0.1825 0.9832 0.0000
vn 0.2621 0.9651 0.0000
vn 0.2624 0.9650 0.0000
vn 0.3398 0.9405 -0.0000
vn 0.3401 0.9404 0.0000
vn 0.4152 0.9097 0.0000
vn 0.4884 0.8726 0.0000
vn 0.5575 0.8302 0.0000
vn 0.6236 0.7818 -0.0000
vn 0.6853 0.7283 -0.0000
vn 0.6849 0.7286 -0.0000
vn 0.7420 0.6704 -0.0000
vn 0.7424 0.6700 0.0000
vn 0.7945 0.6072 -0.0000
vn 0.8413 0.5406 -0.0000
vn 0.8826 0.4702 -0.0000
vn 0.9179 0.3967 -0.0000
vn 0.9178 0.3970 -0.0000
vn 0.9472 0.3207 -0.0000
vn 0.9701 0.2425 -0.0000
vn 0.9702 0.2422 -0.0000
vn 0.9867 0.1625 -0.0000
vn 0.9967 0.0814 -0.0000
vn 0.9967 0.0817 -0.0000
vn 0.9967 0.0812 -0.0000
vn 1.0000 0.0000 -0.0000
vn 0.9967 -0.0812 -0.0000
vn 0.9967 -0.0814 -0.0000
vn 0.9967 -0.0817 -0.0000
vn 0.9867 -0.1625 -0.0000
vn 0.9701 -0.2425 -0.0000
vn 0.9702 -0.2422 -0.0000
vn 0.9472 -0.3207 -0.0000
vn 0.9178 -0.3970 -0.0000
vn 0.9179 -0.3967 -0.0000
vn 0.8826 -0.4702 0.0000
vn 0.8413 -0.5406 -0.0000
vn 0.7945 -0.6072 -0.0000
vn 0.7424 -0.6700 -0.0000
vn 0.7420 -0.6704 -0.0000
vn 0.6853 -0.7283 -0.0000
vn 0.6849 -0.7286 0.0000
vn 0.6236 -0.7818 0.0000
vn 0.5575 -0.8302 0.0000
vn 0.4884 -0.8726 0.0000
vn 0.4152 -0.9097 0.0000
vn 0.3398 -0.9405 -0.0000
vn 0.3401 -0.9404 -0.0000
vn 0.2624 -0.9650 0.0000
vn 0.2621 -0.9651 -0.0000
vn 0.1825 -0.9832 0.0000
vn 0.1018 -0.9948 -0.0000
vn 0.0202 -0.9998 -0.0000
vn 0.0205 -0.9998 -0.0000
vn -0.0612 -0.9981 0.0000
vn -0.1424 -0.9898 0.0000
vn -0.2227 -0.9749 0.0000
vn -0.3010 -0.9536 0.0000
vn -0.3781 -0.9258 0.0000
vn -0.4524 -0.8918 0.0000
vn -0.5233 -0.8521 0.0000
vn -0.5911 -0.8066 0.0000
vn -0.6546 -0.7559 0.0000
vn -0.7145 -0.6997 0.0000
vn -0.7141 -0.7000 -0.0000
vn -0.7142 -0.6999 0.0000
vn -0.7689 -0.6394 0.0000
vn -0.8184 -0.5747 0.0000
vn -0.8626 -0.5059 0.0000
vn -0.8628 -0.5055 0.0000
vn -0.9009 -0.4340 0.0000
vn -0.9333 -0.3590 0.0000
vn -0.9596 -0.2815 0.0000
vn -0.9595 -0.2818 0.0000
vn -0.9793 -0.2025 0.0000
vn -0.9925 -0.1223 0.0000
vn -0.9925 -0.1220 0.0000
vn 0.0000 1.0000 0.0000
vn 0.0000 -1.0000 0.0000
vn -1.0000 0.0000 0.0000
vn 0.0000 0.0000 1.0000
vn -0.0000 -0.0000 -1.0000
usemtl None.001
s 1
f 1//1 2//2 3//2
f 3//2 2//2 4//3
f 3//4 4//5 5//5
f 5//5 4//5 6//6
f 5//7 6//7 7//8
f 7//8 6//7 8//7
f 7//9 8//9 9//9
f 9//9 8//9 10//9
f 9//10 10//11 11//11
f 11//11 10//11 12//11
f 11//12 12//12 13//12
f 13//12 12//12 14//12
f 13//13 14//13 15//13
f 15//13 14//13 16//13
f 15//14 16//14 17//14
f 17//14 16//14 18//15
f 17//16 18//16 19//16
f 19//16 18//16 20//16
f 19//17 20//17 21//17
f 21//17 20//17 22//17
f 21//18 22//19 23//20
f 23//20 22//19 24//20
f 23//21 24//21 25//21
f 25//21 24//21 26//21
f 25//22 26//22 27//22
f 27//22 26//22 28//22
f 27//23 28//23 29//23
f 29//23 28//23 30//23
f 29//24 30//24 31//24
f 31//24 30//24 32//24
f 31//25 32//25 33//25
f 33//25 32//25 34//25
f 33//26 34//26 35//26
f 35//26 34//26 36//26
f 35//27 36//27 37//27
f 37//27 36//27 38//27
f 37//28 38//28 39//28
f 39//28 38//28 40//28
f 39//29 40//29 41//29
f 41//29 40//29 42//29
f 41//30 42//31 43//31
f 43//31 42//31 44//30
f 43//32 44//32 45//32
f 45//32 44//32 46//32
f 45//33 46//33 47//33
f 47//33 46//33 48//33
f 47//34 48//35 49//35
f 49//35 48//35 50//35
f 49//36 50//37 51//37
f 51//37 50//37 52//36
f 51//38 52//38 53//38
f 53//38 52//38 54//38
f 53//39 54//39 55//39
f 55//39 54//39 56//39
f 55//40 56//40 57//40
f 57//40 56//40 58//40
f 57//41 58//41 59//41
f 59//41 58//41 60//41
f 59//42 60//43 61//43
f 61//43 60//43 62//42
f 61//44 62//44 63//44
f 63//44 62//44 64//45
f 63//46 64//46 65//46
f 65//46 64//46 66//46
f 65//47 66//47 67//47
f 67//47 66//47 68//47
f 67//48 68//48 69//48
f 69//48 68//48 70//48
f 69//49 70//50 71//50
f 71//50 70//50 72//50
f 71//51 72//51 73//51
f 73//51 72//51 74//51
f 73//52 74//53 75//53
f 75//53 74//53 76//52
f 75//54 76//54 77//54
f 77//54 76//54 78//54
f 77//55 78//56 79//55
f 79//55 78//56 80//57
f 79//58 80//58 81//58
f 81//58 80//58 82//58
f 81//59 82//60 83//61
f 83//61 82//60 84//60
f 83//62 84//62 85//62
f 85//62 84//62 86//62
f 85//63 86//64 87//64
f 87//64 86//64 88//63
f 87//65 88//65 89//65
f 89//65 88//65 90//65
f 89//66 90//66 91//66
f 91//66 90//66 92//67
f 91//68 92//68 93//68
f 93//68 92//68 94//68
f 93//69 94//69 95//69
f 95//69 94//69 96//69
f 95//70 96//70 97//70
f 97//70 96//70 98//70
f 97//71 98//72 99//72
f 99//72 98//72 100//72
f 99//73 100//74 101//74
f 101//74 100//74 102//73
f 101//75 102//75 103//75
f 103//75 102//75 104//75
f 103//76 104//76 105//76
f 105//76 104//76 106//76
f 105//77 106//77 107//77
f 107//77 106//77 108//77
f 107//78 108//78 109//78
f 109//78 108//78 110//78
f 109//79 110//80 111//80
f 111//80 110//80 112//79
f 111//81 112//81 113//81
f 113//81 112//81 114//82
f 113//83 114//83 115//83
f 115//83 114//83 116//83
f 115//84 116//84 117//84
f 117//84 116//84 118//84
f 117//85 118//86 119//86
f 119//86 118//86 120//85
f 119//87 120//87 121//87
f 121//87 120//87 122//87
f 121//88 122//88 123//88
f 123//88 122//88 124//88
f 123//89 124//89 125//89
f 125//89 124//89 126//89
f 125//90 126//90 127//90
f 127//90 126//90 128//90
f 127//91 128//91 129//91
f 129//91 128//91 130//91
f 129//92 130//92 131//92
f 131//92 130//92 132//92
f 131//93 132//93 133//93
f 133//93 132//93 134//93
f 133//94 134//94 135//94
f 135//94 134//94 136//94
f 135//95 136//95 137//95
f 137//95 136//95 138//95
f 137//96 138//96 139//97
f 139//97 138//96 140//98
f 139//99 140//99 141//99
f 141//99 140//99 142//99
f 141//100 142//100 143//100
f 143//100 142//100 144//100
f 143//101 144//102 145//102
f 145//102 144//102 146//102
f 145//103 146//103 147//103
f 147//103 146//103 148//103
f 147//104 148//104 149//104
f 149//104 148//104 150//104
f 149//105 150//105 151//105
f 151//105 150//105 152//106
f 151//107 152//107 153//107
f 153//107 152//107 154//107
f 153//108 154//109 1//108
f 1//108 154//109 2//108
f 155//110 156//110 157//110
f 157//110 156//110 158//110
f 159//58 155//58 160//58
f 160//58 155//58 157//58
f 161//111 159//111 162//111
f 162//111 159//111 160//111
f 156//112 161//112 158//112
f 158//112 161//112 162//112
f 5//113 160//113 3//113
f 3//113 160//113 157//113
f 3//113 157//113 1//113
f 1//113 157//113 153//113
f 153//113 157//113 151//113
f 151//113 157//113 149//113
f 149//113 157//113 147//113
f 147//113 157//113 145//113
f 145//113 157//113 143//113
f 143//113 157//113 141//113
f 141//113 157//113 139//113
f 139//113 157//113 137//113
f 137//113 157//113 135//113
f 135//113 157//113 133//113
f 133//113 157//113 131//113
f 131//113 157//113 129//113
f 129//113 157//113 127//113
f 127//113 157//113 125//113
f 125//113 157//113 123//113
f 123//113 157//113 121//113
f 121//113 157//113 119//113
f 119//113 157//113 158//113
f 119//113 158//113 117//113
f 117//113 158//113 115//113
f 115//113 158//113 113//113
f 113//113 158//113 111//113
f 111//113 158//113 109//113
f 109//113 158//113 107//113
f 107//113 158//113 105//113
f 105//113 158//113 103//113
f 103//113 158//113 101//113
f 101//113 158//113 99//113
f 99//113 158//113 97//113
f 97//113 158//113 95//113
f 95//113 158//113 93//113
f 93//113 158//113 91//113
f 91//113 158//113 89//113
f 89//113 158//113 87//113
f 87//113 158//113 85//113
f 85//113 158//113 83//113
f 83//113 158//113 81//113
f 81//113 158//113 79//113
f 79//113 158//113 162//113
f 79//113 162//113 77//113
f 77//113 162//113 75//113
f 75//113 162//113 73//113
f 73//113 162//113 71//113
f 71//113 162//113 69//113
f 69//113 162//113 67//113
f 67//113 162//113 65//113
f 65//113 162//113 63//113
f 63//113 162//113 61//113
f 61//113 162//113 59//113
f 59//113 162//113 57//113
f 57//113 162//113 55//113
f 55//113 162//113 53//113
f 53//113 162//113 51//113
f 51//113 162//113 49//113
f 49//113 162//113 47//113
f 47//113 162//113 45//113
f 45//113 162//113 43//113
f 43//113 162//113 41//113
f 41//113 162//113 160//113
f 41//113 160//113 39//113
f 39//113 160//113 37//113
f 37//113 160//113 35//113
f 35//113 160//113 33//113
f 33//113 160//113 31//113
f 31//113 160//113 29//113
f 29//113 160//113 27//113
f 27//113 160//113 25//113
f 25//113 160//113 23//113
f 23//113 160//113 21//113
f 21//113 160//113 19//113
f 19//113 160//113 17//113
f 17//113 160//113 15//113
f 15//113 160//113 13//113
f 13//113 160//113 11//113
f 11//113 160//113 9//113
f 9//113 160//113 7//113
f 7//113 160//113 5//113
f 2//114 155//114 4//114
f 4//114 155//114 159//114
f 4//114 159//114 6//114
f 6//114 159//114 8//114
f 8//114 159//114 10//114
f 10//114 159//114 12//114
f 12//114 159//114 14//114
f 14//114 159//114 16//114
f 16//114 159//114 18//114
f 18//114 159//114 20//114
f 20//114 159//114 22//114
f 22//114 159//114 24//114
f 24//114 159//114 26//114
f 26//114 159//114 28//114
f 28//114 159//114 30//114
f 30//114 159//114 32//114
f 32//114 159//114 34//114
f 34//114 159//114 36//114
f 36//114 159//114 38//114
f 38//114 159//114 40//114
f 40//114 159//114 42//114
f 42//114 159//114 161//114
f 42//114 161//114 44//114
f 44//114 161//114 46//114
f 46//114 161//114 48//114
f 48//114 161//114 50//114
f 50//114 161//114 52//114
f 52//114 161//114 54//114
f 54//114 161//114 56//114
f 56//114 161//114 58//114
f 58//114 161//114 60//114
f 60//114 161//114 62//114
f 62//114 161//114 64//114
f 64//114 161//114 66//114
f 66//114 161//114 68//114
f 68//114 161//114 70//114
f 70//114 161//114 72//114
f 72//114 161//114 74//114
f 74//114 161//114 76//114
f 76//114 161//114 78//114
f 78//114 161//114 80//114
f 80//114 161//114 156//114
f 80//114 156//114 82//114
f 82//114 156//114 84//114
f 84//114 156//114 86//114
f 86//114 156//114 88//114
f 88//114 156//114 90//114
f 90//114 156//114 92//114
f 92//114 156//114 94//114
f 94//114 156//114 96//114
f 96//114 156//114 98//114
f 98//114 156//114 100//114
f 100//114 156//114 102//114
f 102//114 156//114 104//114
f 104//114 156//114 106//114
f 106//114 156//114 108//114
f 108//114 156//114 110//114
f 110//114 156//114 112//114
f 112//114 156//114 114//114
f 114//114 156//114 116//114
f 116//114 156//114 118//114
f 118//114 156//114 120//114
f 120//114 156//114 155//114
f 120//114 155//114 122//114
f 122//114 155//114 124//114
f 124//114 155//114 126//114
f 126//114 155//114 128//114
f 128//114 155//114 130//114
f 130//114 155//114 132//114
f 132//114 155//114 134//114
f 134//114 155//114 136//114
f 136//114 155//114 138//114
f 138//114 155//114 140//114
f 140//114 155//114 142//114
f 142//114 155//114 144//114
f 144//114 155//114 146//114
f 146//114 155//114 148//114
f 148//114 155//114 150//114
f 150//114 155//114 152//114
f 152//114 155//114 154//114
f 154//114 155//114 2//114
