# Blender v3.0.1 OBJ File: ''
# www.blender.org
mtllib RectBlockAdjustedZ.mtl
o RectBlockAdjustedZ.001
v -0.025654 0.019304 -0.000000
v 0.025654 0.019304 0.000000
v -0.025654 0.019304 0.019050
v 0.025654 0.019304 0.019050
v -0.025654 -0.019304 -0.000000
v -0.025654 -0.019304 0.019050
v 0.025654 -0.019304 0.000000
v 0.025654 -0.019304 0.019050
v -0.050800 0.041840 -0.000000
v -0.050800 -0.041840 -0.000000
v -0.050800 0.041840 0.019050
v -0.050800 -0.041840 0.019050
v 0.050800 0.041840 0.000000
v 0.050800 0.041840 0.019050
v 0.050800 -0.041840 0.000000
v 0.050800 -0.041840 0.019050
vn -0.0000 -1.0000 0.0000
vn 1.0000 0.0000 0.0000
vn 0.0000 1.0000 0.0000
vn -1.0000 0.0000 0.0000
vn -0.0000 -0.0000 1.0000
vn 0.0000 0.0000 -1.0000
usemtl None
s 1
f 1//1 2//1 3//1
f 3//1 2//1 4//1
f 5//2 1//2 6//2
f 6//2 1//2 3//2
f 7//3 5//3 8//3
f 8//3 5//3 6//3
f 2//4 7//4 4//4
f 4//4 7//4 8//4
f 9//4 10//4 11//4
f 11//4 10//4 12//4
f 13//3 9//3 14//3
f 14//3 9//3 11//3
f 15//2 13//2 16//2
f 16//2 13//2 14//2
f 10//1 15//1 12//1
f 12//1 15//1 16//1
f 8//5 14//5 4//5
f 4//5 14//5 11//5
f 4//5 11//5 3//5
f 3//5 11//5 6//5
f 6//5 11//5 12//5
f 6//5 12//5 16//5
f 14//5 8//5 16//5
f 16//5 8//5 6//5
f 2//6 15//6 7//6
f 7//6 15//6 10//6
f 7//6 10//6 5//6
f 5//6 10//6 9//6
f 5//6 9//6 1//6
f 1//6 9//6 2//6
f 2//6 9//6 13//6
f 2//6 13//6 15//6
